<<<<<<< HEAD
<svg width="100" height="100" xmlns="http://www.w3.org/2000/svg">
  <style>
    .t { font-family: -apple-system, BlinkMacSystemFont, "Segoe UI", Roboto, sans-serif; font-weight: 700; font-size: 28px; fill: #1e3a8a; }
  </style>
  <text x="10" y="88" class="t">2Y</text>
  <text x="55" y="88" class="t">Lo</text>
  <line x1="10" y1="52" x2="90" y2="52" stroke="#1e3a8a" stroke-width="4" stroke-linecap="round"/>
  <rect x="10" y="22" width="80" height="28" fill="#fecaca"/>
  <line x1="12" y1="24" x2="22" y2="48" stroke="#1e3a8a" stroke-width="3" stroke-linecap="round"/>
  <line x1="28" y1="24" x2="38" y2="48" stroke="#1e3a8a" stroke-width="3" stroke-linecap="round"/>
  <line x1="44" y1="24" x2="54" y2="48" stroke="#1e3a8a" stroke-width="3" stroke-linecap="round"/>
  <line x1="60" y1="24" x2="70" y2="48" stroke="#1e3a8a" stroke-width="3" stroke-linecap="round"/>
  <line x1="76" y1="24" x2="86" y2="48" stroke="#1e3a8a" stroke-width="3" stroke-linecap="round"/>
  
  <line x1="10" y1="18" x2="90" y2="18" stroke="#1e3a8a" stroke-width="4" stroke-dasharray="5 5" stroke-linecap="round"/>
=======
<svg width="100" height="100" xmlns="http://www.w3.org/2000/svg">
  <style>
    .t { font-family: -apple-system, BlinkMacSystemFont, "Segoe UI", Roboto, sans-serif; font-weight: 700; font-size: 28px; fill: #1e3a8a; }
  </style>
  <text x="10" y="88" class="t">2Y</text>
  <text x="55" y="88" class="t">Lo</text>
  <line x1="10" y1="52" x2="90" y2="52" stroke="#1e3a8a" stroke-width="4" stroke-linecap="round"/>
  <rect x="10" y="22" width="80" height="28" fill="#fecaca"/>
  <line x1="12" y1="24" x2="22" y2="48" stroke="#1e3a8a" stroke-width="3" stroke-linecap="round"/>
  <line x1="28" y1="24" x2="38" y2="48" stroke="#1e3a8a" stroke-width="3" stroke-linecap="round"/>
  <line x1="44" y1="24" x2="54" y2="48" stroke="#1e3a8a" stroke-width="3" stroke-linecap="round"/>
  <line x1="60" y1="24" x2="70" y2="48" stroke="#1e3a8a" stroke-width="3" stroke-linecap="round"/>
  <line x1="76" y1="24" x2="86" y2="48" stroke="#1e3a8a" stroke-width="3" stroke-linecap="round"/>
  
  <line x1="10" y1="18" x2="90" y2="18" stroke="#1e3a8a" stroke-width="4" stroke-dasharray="5 5" stroke-linecap="round"/>
>>>>>>> 6f13ce0 (initial commit with all files)
</svg>